<svg width="40" height="40" viewBox="0 0 40 40" fill="none" xmlns="http://www.w3.org/2000/svg">
  <g id="M-Swoosh">
    <rect width="40" height="40" rx="6.73913" fill="#0C1911" />
    <path id="Vector 55"
      d="M2.96896 11.9822C7.80182 11.9822 11.8692 15.9178 12.6347 19.7035C13.0064 21.542 13.3065 28.7244 9.47474 27.9764C6.30814 27.3583 7.81374 21.5419 8.37138 19.7035C8.92902 17.8651 11.1596 12.3499 14.6913 11.9822C18.223 11.6145 18.5947 15.2913 18.4089 17.3136C18.223 19.3358 17.4795 24.4834 20.0818 24.4834C23.7874 24.4834 23.0524 12.8722 27.7028 12.3499C32.3038 11.8331 30.3583 18.4166 29.1899 22.4612C28.5291 24.7485 29.5888 26.5866 31.4085 27.0572C32.8682 27.4347 34.7348 26.4999 37.0311 23.1511"
      stroke="#00FF66" stroke-width="3.13043" />
  </g>
</svg>
