<svg width="130" height="33" viewBox="0 0 130 33" fill="none" xmlns="http://www.w3.org/2000/svg">
  <g id="Frame 2">
    <g id="Vector">
      <path fill-rule="evenodd" clip-rule="evenodd"
        d="M15.7027 12.7231C15.52 12.6104 15.1684 12.4716 14.4747 12.5441C13.5795 12.6376 12.5893 13.3124 11.6006 14.5462C12.6901 16.0599 13.4702 17.7458 13.8165 19.4654C14.0873 20.8099 14.3089 23.8366 13.8186 26.4968C13.5765 27.8106 13.1124 29.3175 12.1502 30.4596C11.6461 31.058 10.9854 31.5784 10.1464 31.8807C9.30449 32.1841 8.40871 32.2223 7.50752 32.0457C5.77064 31.7053 4.65393 30.5877 4.06114 29.2563C3.51607 28.032 3.40614 26.6383 3.4405 25.4303C3.50991 22.9893 4.20655 20.4326 4.55706 19.2724C4.84252 18.3275 5.43769 16.7029 6.33157 15.0024C4.56381 13.5088 2.34156 12.5555 -8.61019e-05 12.5555L-0.00012207 8.34968C3.3182 8.34965 6.33035 9.6262 8.67681 11.4876C10.0045 9.95866 11.7817 8.59682 14.0375 8.36102C15.4914 8.20905 16.807 8.46301 17.91 9.14302C18.9963 9.81277 19.6921 10.7819 20.1283 11.7468C20.9678 13.6034 20.9984 15.7677 20.8715 17.1541C20.8508 17.3798 20.8267 17.6212 20.8014 17.8744C20.6739 19.151 20.5163 20.7282 20.62 22.1081C20.672 22.8 20.7812 23.2555 20.8888 23.518C21.0307 23.3678 21.2311 23.0832 21.4677 22.5869C21.9643 21.5449 22.3682 20.1418 22.8528 18.458C22.8993 18.2962 22.9466 18.1318 22.9949 17.9649C23.5087 16.186 24.1248 14.1277 25.0381 12.4705C25.9515 10.8131 27.4282 9.08433 29.8446 8.81183C31.7658 8.59517 33.5118 9.11262 34.6205 10.6283C35.5841 11.9454 35.7565 13.6314 35.7178 15.0435C35.6419 17.8172 34.6658 21.2048 33.9827 23.5755C33.958 23.6614 33.9336 23.746 33.9097 23.8292C33.6329 24.7911 33.7579 25.4926 33.9819 25.9339C34.202 26.3677 34.5807 26.6855 35.1155 26.8243C35.3299 26.88 35.7308 26.9255 36.494 26.4291C37.3256 25.8881 38.4641 24.771 39.9235 22.6432L43.3919 25.0222C41.7917 27.3552 40.2824 28.982 38.7874 29.9546C37.2239 30.9717 35.6193 31.3004 34.0585 30.8951C32.3801 30.4594 31.008 29.3676 30.2313 27.8372C29.4586 26.3144 29.341 24.4973 29.8678 22.6663C30.6045 20.1058 31.4528 17.1506 31.5136 14.9285C31.5446 13.7925 31.3482 13.2785 31.226 13.1115C31.1953 13.0695 31.1728 13.0494 31.1084 13.0261C31.0194 12.994 30.7845 12.9383 30.3159 12.9912C29.9046 13.0376 29.3721 13.3202 28.7216 14.5005C28.071 15.681 27.5685 17.2867 27.0355 19.132C26.9844 19.3088 26.9329 19.4887 26.8807 19.6708C26.4252 21.2601 25.9212 23.0184 25.2642 24.3966C24.5808 25.8305 23.273 27.8199 20.8118 27.8199C19.1401 27.8199 17.9635 26.9053 17.2986 25.7352C16.7113 24.7016 16.5044 23.467 16.426 22.4232C16.2913 20.6313 16.4986 18.5976 16.6259 17.3496C16.6482 17.1306 16.668 16.9357 16.6832 16.7707C16.7823 15.6878 16.6999 14.3727 16.296 13.4795C16.1106 13.0694 15.9021 12.846 15.7027 12.7231ZM9.20558 18.776C8.91883 19.4688 8.70921 20.0715 8.58316 20.4888C8.2555 21.5733 7.69752 23.69 7.64463 25.5498C7.61783 26.4922 7.72983 27.1559 7.90337 27.5456C8.02918 27.8282 8.12775 27.8814 8.31642 27.9184C8.58022 27.9701 8.69241 27.9341 8.72071 27.9239C8.75198 27.9126 8.8238 27.8802 8.93373 27.7497C9.19958 27.4342 9.4898 26.7796 9.68243 25.7344C10.0617 23.6768 9.87479 21.1961 9.69346 20.2958C9.59341 19.799 9.42926 19.2879 9.20558 18.776Z"
        fill="#090D11" />
      <path class="tofill" d="M64.4044 0.748901H68.6551V28.8468H64.4044V0.748901Z" fill="#090D11" />
      <path
        d="M52.4722 29.243C50.9592 29.243 49.5903 28.9068 48.3656 28.2344C47.1408 27.5379 46.1802 26.5893 45.4837 25.3886C44.7873 24.1638 44.4391 22.8069 44.4391 21.318V10.6912H48.6898V21.39C48.6898 22.4707 49.038 23.3713 49.7344 24.0917C50.4549 24.8122 51.3675 25.1724 52.4722 25.1724C53.5769 25.1724 54.4774 24.8242 55.1739 24.1278C55.8943 23.4073 56.2546 22.4947 56.2546 21.39V10.6912H60.5053V21.318C60.5053 22.8069 60.1571 24.1638 59.4606 25.3886C58.7642 26.5893 57.8036 27.5379 56.5788 28.2344C55.354 28.9068 53.9851 29.243 52.4722 29.243Z"
        fill="#090D11" />
      <path fill-rule="evenodd" clip-rule="evenodd"
        d="M76.7929 27.9822C78.2578 28.8227 79.8428 29.243 81.5479 29.243C83.277 29.243 84.874 28.8227 86.339 27.9822C87.8039 27.1177 88.9566 25.9529 89.7971 24.488C90.6617 23.0231 91.094 21.438 91.094 19.733C91.094 18.0519 90.6617 16.4909 89.7971 15.05C88.9326 13.5851 87.7679 12.4323 86.3029 11.5918C84.838 10.7272 83.253 10.295 81.5479 10.295C79.8428 10.295 78.2578 10.7272 76.7929 11.5918C75.328 12.4323 74.1632 13.5731 73.2987 15.014C72.4581 16.4549 72.0379 18.0279 72.0379 19.733C72.0379 21.438 72.4581 23.0231 73.2987 24.488C74.1632 25.9529 75.328 27.1177 76.7929 27.9822ZM76.973 22.4707C76.5167 21.6302 76.2886 20.7176 76.2886 19.733C76.2886 18.7724 76.5287 17.8838 77.009 17.0673C77.4893 16.2267 78.1257 15.5663 78.9182 15.086C79.7347 14.6057 80.6113 14.3656 81.5479 14.3656C82.4845 14.3656 83.3611 14.6177 84.1776 15.122C84.9941 15.6023 85.6425 16.2628 86.1228 17.1033C86.6031 17.9198 86.8433 18.8084 86.8433 19.769C86.8433 20.7296 86.6031 21.6302 86.1228 22.4707C85.6425 23.2872 84.9941 23.9476 84.1776 24.452C83.3611 24.9323 82.4845 25.1724 81.5479 25.1724C80.5873 25.1724 79.6987 24.9323 78.8822 24.452C78.0897 23.9476 77.4533 23.2872 76.973 22.4707Z"
        fill="#090D11" />
      <path fill-rule="evenodd" clip-rule="evenodd"
        d="M102.988 29.243C101.283 29.243 99.6975 28.8227 98.2326 27.9822C96.7677 27.1177 95.6029 25.9529 94.7384 24.488C93.8978 23.0231 93.4776 21.438 93.4776 19.733C93.4776 18.0279 93.8978 16.4549 94.7384 15.014C95.6029 13.5731 96.7677 12.4323 98.2326 11.5918C99.6975 10.7272 101.283 10.295 102.988 10.295C104.693 10.295 106.278 10.7272 107.743 11.5918C109.208 12.4323 110.372 13.5851 111.237 15.05C112.101 16.4909 112.534 18.0519 112.534 19.733C112.534 21.438 112.101 23.0231 111.237 24.488C110.396 25.9529 109.244 27.1177 107.779 27.9822C106.314 28.8227 104.717 29.243 102.988 29.243ZM97.7283 19.733C97.7283 20.7176 97.9564 21.6302 98.4127 22.4707C98.893 23.2872 99.5294 23.9476 100.322 24.452C101.138 24.9323 102.027 25.1724 102.988 25.1724C103.924 25.1724 104.801 24.9323 105.617 24.452C106.434 23.9476 107.082 23.2872 107.563 22.4707C108.043 21.6302 108.283 20.7296 108.283 19.769C108.283 18.8084 108.043 17.9198 107.563 17.1033C107.082 16.2628 106.434 15.6023 105.617 15.122C104.801 14.6177 103.924 14.3656 102.988 14.3656C102.051 14.3656 101.174 14.6057 100.358 15.086C99.5654 15.5663 98.929 16.2267 98.4487 17.0673C97.9684 17.8838 97.7283 18.7724 97.7283 19.733Z"
        fill="#090D11" />
      <path
        d="M121.447 28.4145C122.479 28.9668 123.656 29.243 124.977 29.243C125.962 29.243 126.91 29.0749 127.823 28.7387C128.735 28.4025 129.328 27.9342 130 27.3338L128.363 23.9837C127.475 24.7762 126.478 25.1724 125.373 25.1724C124.461 25.1724 123.752 24.9083 123.248 24.3799C122.744 23.8516 122.491 23.1071 122.491 22.1465V14.7532C122.902 14.7107 123.328 14.6459 123.77 14.5481C125.416 14.1843 127.212 13.3998 129.667 11.8849L127.49 8.35672C125.238 9.74584 123.891 10.2757 122.875 10.5001C122.744 10.5292 122.617 10.5538 122.491 10.5745V5.14369H118.241V10.6766H113.557V14.8223H118.241V22.6148C118.241 23.9116 118.517 25.0644 119.069 26.073C119.646 27.0816 120.438 27.8621 121.447 28.4145Z"
        fill="#090D11" />
    </g>
  </g>
</svg>
